<?xml version="1.0" standalone="no"?>
<!DOCTYPE svg PUBLIC "-//W3C//DTD SVG 20010904//EN"
 "http://www.w3.org/TR/2001/REC-SVG-20010904/DTD/svg10.dtd">
<svg version="1.0" xmlns="http://www.w3.org/2000/svg"
 width="800.000000pt" height="800.000000pt" viewBox="0 0 800.000000 800.000000"
 preserveAspectRatio="xMidYMid meet">

<g transform="translate(0.000000,800.000000) scale(0.100000,-0.100000)"
fill="#111111" stroke="white" stroke-width="150">
<path d="M3618 7331 l-33 -29 0 -569 0 -568 31 -87 c86 -239 282 -425 512
-484 l72 -18 0 -203 0 -202 -212 -3 c-179 -2 -217 -6 -236 -20 -37 -26 -54
-57 -54 -96 1 -21 65 -325 142 -677 78 -352 168 -760 200 -907 33 -147 64
-277 70 -288 29 -54 114 -70 169 -31 17 12 54 42 83 67 l52 44 14 -32 c7 -18
42 -103 77 -188 60 -148 337 -828 648 -1590 79 -195 188 -463 241 -595 110
-272 133 -305 206 -305 74 0 86 20 234 385 73 182 398 978 721 1770 323 792
616 1510 650 1595 35 85 115 283 179 439 65 159 116 298 116 316 0 18 -10 45
-22 60 -40 51 -66 55 -328 55 l-240 0 2 202 3 201 65 18 c263 73 462 278 531
546 18 71 19 114 19 616 l0 539 -34 34 -34 34 -664 0 c-585 0 -666 -2 -686
-16 -40 -28 -52 -66 -52 -169 l0 -95 -504 0 -504 0 -4 111 -3 111 -33 29 -32
29 -665 0 -665 0 -32 -29z m1202 -371 c0 -93 -3 -170 -6 -170 -9 0 -634 331
-634 336 0 2 144 4 320 4 l320 0 0 -170z m2119 166 c-2 -2 -139 -74 -304 -161
-165 -87 -304 -162 -309 -166 -6 -5 -16 -9 -23 -9 -10 0 -13 37 -13 170 l0
170 327 0 c179 0 324 -2 322 -4z m-2769 -263 c140 -75 316 -168 390 -208 74
-40 164 -87 199 -105 l64 -32 -5 -156 c-5 -138 -8 -165 -31 -225 -101 -261
-370 -392 -632 -305 -75 25 -116 50 -179 108 -63 58 -100 114 -134 197 l-27
68 -3 423 -3 423 53 -27 c29 -14 168 -87 308 -161z m3115 -669 c-19 -87 -71
-176 -145 -251 -101 -102 -263 -155 -408 -134 -168 25 -316 133 -387 283 -41
86 -52 152 -54 309 l-2 116 153 80 c201 106 292 154 598 317 l255 135 3 -392
c2 -327 0 -404 -13 -463z m-1521 525 l-132 -132 -168 128 c-93 71 -171 130
-173 132 -2 1 133 3 300 3 l304 0 -131 -131z m-184 -383 c256 -192 468 -354
471 -359 11 -15 -20 -127 -49 -181 -35 -64 -119 -156 -180 -194 -156 -100
-378 -100 -533 -1 -114 72 -207 215 -229 349 -5 36 -10 226 -10 423 l0 358 33
-23 c17 -12 241 -180 497 -372z m478 40 l-3 -105 -112 85 c-62 46 -113 88
-113 92 0 3 51 57 113 120 l112 112 3 -99 c1 -55 1 -147 0 -205z m-1156 -674
c56 -116 143 -217 249 -288 73 -48 185 -97 252 -109 l37 -7 0 -64 0 -64 -505
0 -505 0 0 203 0 204 58 12 c88 19 231 94 298 156 33 30 61 54 64 54 3 0 26
-43 52 -97z m1399 62 c51 -53 169 -123 262 -155 45 -16 90 -29 100 -29 16 0
17 -16 17 -205 l0 -205 -505 0 -505 0 0 63 0 62 68 18 c213 56 412 228 494
429 12 32 25 58 29 58 3 0 21 -16 40 -36z m-281 -839 c0 -5 -1706 -1446 -1725
-1457 -15 -9 -15 -11 -120 472 -42 190 -107 486 -146 658 -38 172 -69 317 -69
322 0 7 368 10 1030 10 567 0 1030 -2 1030 -5z m1171 -42 c-10 -27 -110 -271
-221 -543 -111 -272 -364 -893 -562 -1380 -199 -487 -387 -948 -418 -1025 -32
-77 -125 -306 -208 -510 -83 -203 -158 -388 -167 -410 l-17 -39 -43 104 c-23
58 -196 483 -385 945 -189 462 -394 964 -455 1117 l-113 276 522 440 c286 241
638 538 781 659 143 120 312 263 375 316 l115 97 407 0 408 0 -19 -47z"/>
<path d="M1490 4800 l0 -640 -650 0 -650 0 0 -115 0 -115 650 0 650 0 0 -675
0 -675 115 0 115 0 0 675 0 675 665 0 665 0 0 115 0 115 -665 0 -665 0 0 640
0 640 -115 0 -115 0 0 -640z"/>
</g>
</svg>
